<?xml version="1.0" encoding="utf-8"?>
<!-- Generator: Adobe Illustrator 22.0.1, SVG Export Plug-In . SVG Version: 6.00 Build 0)  -->
<svg version="1.1" id="Layer_1" xmlns="http://www.w3.org/2000/svg" xmlns:xlink="http://www.w3.org/1999/xlink" x="0px" y="0px"
	 viewBox="0 0 503 93.3" style="enable-background:new 0 0 503 93.3;" xml:space="preserve">
<g>
	<g>
		<g>
			<path d="M67.4,0.6l-20.1,0C21.8,0.6,0.5,20.7,0,46.2c-0.5,26,20.5,47.3,46.4,47.3H123c3.2,0,5.8-2.6,5.8-5.8v0
				c0-6.7-5.4-12.2-12.2-12.2l-69.6,0c-15.5,0-28.6-12.1-29-27.6c-0.4-16,12.5-29.2,28.4-29.2h10.5c7.9,0,14.2-6.4,14.2-14.2v0
				C71.1,2.3,69.5,0.6,67.4,0.6z"/>
		</g>
		<g>
			<path d="M60.6,24.3l-16.9,0c-5.6,0-10.9,2.7-14.1,7.3c-12.9,18.3,0,38.1,17.4,38.1h68.8v0c0-4.9-3.9-8.8-8.8-8.8l-63.2,0
				c-2.4,0-4.7-1-6.2-2.8c-10-11.6-1.9-25,9.4-25h4.9C56.7,33,60.6,29.1,60.6,24.3L60.6,24.3C60.6,24.3,60.6,24.3,60.6,24.3z"/>
		</g>
	</g>
	<g>
		<path d="M101.9,41.2c-3.4-1.8-6-4.3-8-7.5C92,30.4,91,26.8,91,22.7c0-4.1,1-7.7,2.9-10.9c1.9-3.2,4.6-5.7,8-7.5
			c3.4-1.8,7.2-2.7,11.5-2.7c3.7,0,7.1,0.7,10,2c3,1.3,5.5,3.2,7.4,5.7l-7.3,6.6c-2.6-3.2-5.8-4.8-9.6-4.8c-2.2,0-4.2,0.5-5.9,1.5
			c-1.7,1-3.1,2.3-4,4.1c-0.9,1.8-1.4,3.8-1.4,6.1c0,2.3,0.5,4.3,1.4,6.1c0.9,1.8,2.3,3.1,4,4.1c1.7,1,3.7,1.5,5.9,1.5
			c3.8,0,6.9-1.6,9.6-4.8l7.3,6.6c-2,2.5-4.4,4.4-7.4,5.7c-3,1.3-6.3,2-10,2C109.1,43.8,105.3,42.9,101.9,41.2z"/>
		<path d="M167.6,11.6V43h-10.5v-3.1c-2,2.4-5.1,3.7-9.3,3.7c-2.9,0-5.5-0.7-7.8-2c-2.3-1.3-4.2-3.2-5.6-5.7
			c-1.4-2.5-2.1-5.3-2.1-8.6s0.7-6.1,2.1-8.6c1.4-2.5,3.2-4.3,5.6-5.7c2.3-1.3,4.9-2,7.8-2c3.7,0,6.6,1.1,8.8,3.2v-2.7H167.6z
			 M154.9,32.8c1.2-1.3,1.9-3.2,1.9-5.5c0-2.3-0.6-4.1-1.9-5.5s-2.8-2-4.8-2s-3.5,0.7-4.8,2c-1.2,1.3-1.9,3.1-1.9,5.5
			c0,2.4,0.6,4.2,1.9,5.5c1.2,1.3,2.8,2,4.8,2S153.6,34.1,154.9,32.8z"/>
		<path d="M202.5,43V26.5l-8.1,13.7h-4.7l-7.8-14V43H172V11.6h11.6l8.8,16.4l9.6-16.4h10.4l0.1,31.4H202.5z"/>
		<path d="M250.1,11.6V43h-10.5v-3.1c-2.1,2.4-5.1,3.7-9.3,3.7c-2.9,0-5.5-0.7-7.8-2c-2.3-1.3-4.2-3.2-5.6-5.7
			c-1.4-2.5-2.1-5.3-2.1-8.6s0.7-6.1,2.1-8.6c1.4-2.5,3.2-4.3,5.6-5.7c2.3-1.3,4.9-2,7.8-2c3.7,0,6.6,1.1,8.8,3.2v-2.7H250.1z
			 M237.4,32.8c1.2-1.3,1.9-3.2,1.9-5.5c0-2.3-0.6-4.1-1.9-5.5c-1.2-1.3-2.8-2-4.8-2c-1.9,0-3.5,0.7-4.8,2s-1.9,3.1-1.9,5.5
			c0,2.4,0.6,4.2,1.9,5.5s2.8,2,4.8,2C234.5,34.8,236.1,34.1,237.4,32.8z"/>
		<path d="M280.3,13c2.6,1.3,4.5,3.2,5.9,5.7c1.4,2.5,2.1,5.3,2.1,8.6c0,3.2-0.6,6.1-1.9,8.6c-1.3,2.5-3.1,4.3-5.4,5.7
			c-2.3,1.3-5,2-8.1,2c-3.6,0-6.4-1.1-8.5-3.3v14h-11V27.4c0-3.2,0.7-6.1,2.2-8.6c1.5-2.5,3.6-4.4,6.3-5.7c2.7-1.4,5.9-2,9.5-2
			C274.7,11.1,277.7,11.7,280.3,13z M275.6,32.7c1.2-1.4,1.8-3.2,1.8-5.4c0-2.2-0.6-4-1.8-5.4c-1.2-1.4-2.8-2.1-4.8-2.1
			c-2,0-3.6,0.7-4.8,2.1c-1.2,1.4-1.8,3.2-1.8,5.4c0,2.3,0.6,4.1,1.8,5.5s2.8,2,4.8,2C272.7,34.8,274.3,34.1,275.6,32.7z"/>
		<path d="M324.8,11.6V43h-10.5v-3.1c-2.1,2.4-5.1,3.7-9.3,3.7c-2.9,0-5.5-0.7-7.8-2c-2.3-1.3-4.2-3.2-5.6-5.7
			c-1.4-2.5-2.1-5.3-2.1-8.6s0.7-6.1,2.1-8.6c1.4-2.5,3.2-4.3,5.6-5.7c2.3-1.3,4.9-2,7.8-2c3.7,0,6.6,1.1,8.8,3.2v-2.7H324.8z
			 M312.1,32.8c1.2-1.3,1.9-3.2,1.9-5.5c0-2.3-0.6-4.1-1.9-5.5c-1.2-1.3-2.8-2-4.8-2c-1.9,0-3.5,0.7-4.8,2s-1.9,3.1-1.9,5.5
			c0,2.4,0.6,4.2,1.9,5.5s2.8,2,4.8,2C309.3,34.8,310.8,34.1,312.1,32.8z"/>
		<path d="M335.6,41.5c-2.7-1.4-4.9-3.3-6.4-5.8c-1.5-2.5-2.3-5.3-2.3-8.4c0-3.1,0.8-5.9,2.3-8.4c1.5-2.5,3.7-4.4,6.4-5.7
			c2.7-1.4,5.9-2.1,9.3-2.1c3.6,0,6.6,0.8,9.2,2.3c2.6,1.5,4.4,3.6,5.5,6.4l-8.5,4.4c-1.4-2.8-3.5-4.2-6.3-4.2c-2,0-3.6,0.7-4.9,2
			c-1.3,1.3-1.9,3.1-1.9,5.5c0,2.4,0.6,4.2,1.9,5.5c1.3,1.3,2.9,2,4.9,2c2.7,0,4.8-1.4,6.3-4.2l8.5,4.3c-1.1,2.7-2.9,4.8-5.5,6.4
			c-2.6,1.5-5.7,2.3-9.2,2.3C341.5,43.6,338.4,42.9,335.6,41.5z"/>
		<path d="M369.5,41.5c-2.7-1.4-4.8-3.3-6.4-5.8c-1.5-2.5-2.3-5.3-2.3-8.4c0-3.1,0.8-5.9,2.3-8.4c1.5-2.5,3.6-4.4,6.3-5.8
			c2.7-1.4,5.7-2.1,9.1-2.1c3.4,0,6.5,0.7,9.2,2.1c2.7,1.4,4.8,3.3,6.3,5.7c1.5,2.5,2.3,5.2,2.3,8.4c0,3.1-0.8,5.9-2.3,8.4
			c-1.5,2.5-3.6,4.4-6.3,5.8c-2.7,1.4-5.8,2.1-9.2,2.1C375.2,43.6,372.2,42.9,369.5,41.5z M383.3,32.8c1.2-1.3,1.9-3.2,1.9-5.5
			c0-2.3-0.6-4.1-1.9-5.5c-1.2-1.3-2.8-2-4.8-2c-1.9,0-3.5,0.7-4.8,2c-1.2,1.3-1.9,3.1-1.9,5.5c0,2.4,0.6,4.2,1.9,5.5
			c1.2,1.3,2.8,2,4.8,2C380.5,34.8,382.1,34.1,383.3,32.8z"/>
		<path d="M441.3,38.8c-3.3,2.8-8,4.4-14.1,4.9v10.6h-9.7V43.7c-6.1-0.5-10.9-2.2-14.1-5s-4.9-6.7-4.9-11.6c0-4.9,1.6-8.7,4.8-11.4
			c3.2-2.7,8-4.3,14.2-4.8V0h9.7v11.1c6.1,0.5,10.9,2.1,14.1,4.8s4.9,6.5,4.9,11.3C446.2,32.1,444.5,36,441.3,38.8z M410.9,33
			c1.3,1.3,3.5,2.2,6.5,2.6V19.1c-3.1,0.4-5.2,1.2-6.6,2.5c-1.3,1.3-2,3.1-2,5.6C408.9,29.8,409.6,31.7,410.9,33z M433.7,33
			c1.3-1.3,2-3.3,2-5.8c0-2.4-0.7-4.3-2-5.6c-1.3-1.3-3.5-2.1-6.6-2.4v16.4C430.2,35.2,432.4,34.4,433.7,33z"/>
		<path d="M499.7,14.6c2.3,2.3,3.5,5.8,3.5,10.5v18h-11V26.9c0-2.2-0.4-3.8-1.2-4.9c-0.8-1-2-1.6-3.5-1.6c-1.7,0-3,0.6-4,1.7
			c-1,1.2-1.5,2.9-1.5,5.3V43h-11V26.9c0-4.3-1.6-6.4-4.8-6.4c-1.7,0-3.1,0.6-4.1,1.7c-1,1.2-1.5,2.9-1.5,5.3V43h-11V11.6H460v3.3
			c1.2-1.3,2.5-2.2,4.1-2.9c1.6-0.6,3.4-1,5.2-1c2.2,0,4.2,0.4,5.9,1.2c1.7,0.8,3.2,2,4.2,3.7c1.2-1.6,2.8-2.8,4.7-3.7
			c1.9-0.9,4-1.3,6.2-1.3C494.3,11.1,497.4,12.2,499.7,14.6z"/>
	</g>
</g>
<g>
	<path d="M159.3,76.2c0.8,0.3,1.4,0.8,1.8,1.5c0.4,0.6,0.6,1.4,0.6,2.3c0,0.9-0.2,1.6-0.6,2.3c-0.4,0.6-1,1.1-1.8,1.5
		c-0.8,0.3-1.7,0.5-2.7,0.5h-2.7v3.5h-2.2v-12h4.9C157.6,75.7,158.5,75.9,159.3,76.2z M158.7,81.7c0.5-0.4,0.8-1,0.8-1.8
		c0-0.8-0.3-1.4-0.8-1.8c-0.5-0.4-1.2-0.6-2.2-0.6h-2.6v4.8h2.6C157.4,82.3,158.1,82.1,158.7,81.7z"/>
	<path d="M173.6,85.8v1.9h-9v-12h8.8v1.9h-6.5v3.1h5.8v1.8h-5.8v3.3H173.6z"/>
	<path d="M192.4,75.7v12H177v-12h2.2v10.1h4.4V75.7h2.2v10.1h4.4V75.7H192.4z"/>
	<path d="M205.7,85.8v1.9h-9v-12h8.8v1.9h-6.5v3.1h5.8v1.8h-5.8v3.3H205.7z"/>
	<path d="M219.7,75.7v12h-2.2v-5.1h-6.2v5.1H209v-12h2.2v5h6.2v-5H219.7z"/>
	<path d="M223.9,75.7h2.2v8.5l6.5-8.5h2.1v12h-2.2v-8.5l-6.5,8.5h-2.1V75.7z"/>
	<path d="M248.1,75.7v12h-2.2v-3.3h-3h-0.2l-2.2,3.3h-2.4l2.6-3.7c-0.8-0.3-1.5-0.8-1.9-1.5c-0.5-0.7-0.7-1.5-0.7-2.4
		c0-0.9,0.2-1.7,0.6-2.4c0.4-0.7,1-1.2,1.8-1.5c0.8-0.3,1.6-0.5,2.7-0.5H248.1z M241,78.2c-0.5,0.4-0.7,1-0.7,1.9
		c0,0.8,0.2,1.4,0.7,1.8c0.5,0.4,1.2,0.6,2,0.6h2.8v-5h-2.7C242.2,77.6,241.5,77.8,241,78.2z"/>
	<path d="M269.8,85.8v4.4h-2.1v-2.6h-9.2v2.6h-2.1l0-4.4h0.5c0.8,0,1.3-0.6,1.6-1.7c0.3-1.1,0.5-2.6,0.6-4.6l0.1-3.8h8.8v10.1H269.8
		z M260.7,83.6c-0.2,1-0.5,1.8-0.9,2.2h6.1v-8.2h-4.7l-0.1,2.1C261,81.3,260.9,82.6,260.7,83.6z"/>
	<path d="M283,75.7v12h-2.2V77.6h-4.7l-0.1,3c-0.1,1.7-0.2,3-0.4,4.1c-0.2,1-0.6,1.8-1,2.4c-0.5,0.5-1.1,0.8-2,0.8
		c-0.3,0-0.7-0.1-1.2-0.2l0.2-1.9c0.1,0,0.3,0.1,0.5,0.1c0.7,0,1.2-0.4,1.5-1.2c0.3-0.8,0.5-2.1,0.5-3.9l0.2-5H283z"/>
	<path d="M296.4,75.7v12h-2.2v-3.3h-3H291l-2.2,3.3h-2.4L289,84c-0.8-0.3-1.5-0.8-1.9-1.5c-0.5-0.7-0.7-1.5-0.7-2.4
		c0-0.9,0.2-1.7,0.6-2.4c0.4-0.7,1-1.2,1.8-1.5c0.8-0.3,1.6-0.5,2.7-0.5H296.4z M289.4,78.2c-0.5,0.4-0.7,1-0.7,1.9
		c0,0.8,0.2,1.4,0.7,1.8c0.5,0.4,1.2,0.6,2,0.6h2.8v-5h-2.7C290.6,77.6,289.9,77.8,289.4,78.2z"/>
	<path d="M313,76.3c0.9,0.5,1.7,1.3,2.2,2.2c0.5,0.9,0.8,2,0.8,3.2c0,1.2-0.3,2.2-0.8,3.2c-0.5,0.9-1.3,1.7-2.2,2.2
		c-0.9,0.5-2,0.8-3.1,0.8c-1,0-1.9-0.2-2.8-0.5c-0.8-0.3-1.5-0.8-2.1-1.5l1.4-1.4c0.9,0.9,2,1.4,3.3,1.4c1,0,1.9-0.3,2.6-0.9
		s1.2-1.5,1.3-2.5h-5.4v-1.8h5.3c-0.2-1-0.6-1.8-1.3-2.4c-0.7-0.6-1.6-0.9-2.5-0.9c-1.3,0-2.4,0.5-3.3,1.4l-1.4-1.4
		c0.5-0.7,1.2-1.1,2.1-1.5c0.8-0.3,1.8-0.5,2.8-0.5C311,75.5,312.1,75.8,313,76.3z"/>
	<path d="M330,75.7v12h-2.2v-5.1h-6.2v5.1h-2.2v-12h2.2v5h6.2v-5H330z"/>
	<path d="M343.2,85.8v1.9h-9v-12h8.8v1.9h-6.5v3.1h5.8v1.8h-5.8v3.3H343.2z"/>
	<path d="M354.2,76.2c0.8,0.3,1.4,0.8,1.8,1.5c0.4,0.6,0.6,1.4,0.6,2.3c0,0.9-0.2,1.6-0.6,2.3c-0.4,0.6-1,1.1-1.8,1.5
		c-0.8,0.3-1.7,0.5-2.7,0.5h-2.7v3.5h-2.2v-12h4.9C352.5,75.7,353.5,75.9,354.2,76.2z M353.6,81.7c0.5-0.4,0.8-1,0.8-1.8
		c0-0.8-0.3-1.4-0.8-1.8c-0.5-0.4-1.2-0.6-2.2-0.6h-2.6v4.8h2.6C352.4,82.3,353.1,82.1,353.6,81.7z"/>
	<path d="M367.7,77.6h-6l0,10.1h-2.2v-12h8.2L367.7,77.6z"/>
	<path d="M379.5,85.8v1.9h-9v-12h8.8v1.9h-6.5v3.1h5.8v1.8h-5.8v3.3H379.5z"/>
	<path d="M391.6,77.6h-4v10.1h-2.2V77.6h-4v-1.9h10.2V77.6z"/>
	<path d="M394.4,75.7h2.2v8.5l6.5-8.5h2.1v12h-2.2v-8.5l-6.5,8.5h-2.1V75.7z"/>
	<path d="M413.7,82.6h-2.2v5.1h-2.2v-12h2.2v5h2.3l3.4-5h2.4l-4.1,5.8l4.3,6.2h-2.5L413.7,82.6z"/>
	<path d="M422.2,75.7h2.2v8.5l6.5-8.5h2.1v12h-2.2v-8.5l-6.5,8.5h-2.1V75.7z"/>
	<path d="M442.7,75.7h2.2v8.5l6.5-8.5h2.1v12h-2.2v-8.5l-6.5,8.5h-2.1V75.7z"/>
	<path d="M473.8,82.6h-2.1v5.1h-2.2v-5.1h-2.1l-3,5.1h-2.6l3.8-6.3l-3.5-5.7h2.4l2.9,5h2.1v-5h2.2v5h2.1l3-5h2.4l-3.5,5.8l3.8,6.2
		h-2.6L473.8,82.6z"/>
	<path d="M486.2,82.6H484v5.1h-2.2v-12h2.2v5h2.3l3.4-5h2.4l-4.1,5.8l4.3,6.2h-2.5L486.2,82.6z"/>
	<path d="M496.2,75.7l2.8,4l2.8-4h2.6l-4,5.8l4.4,6.2h-2.6l-3.1-4.4l-3.1,4.4h-2.6l4.3-6.2l-4.1-5.9H496.2z"/>
</g>
</svg>
