<?xml version="1.0" encoding="utf-8"?>
<!-- Generator: Adobe Illustrator 22.0.1, SVG Export Plug-In . SVG Version: 6.00 Build 0)  -->
<svg version="1.1" id="Layer_1" xmlns="http://www.w3.org/2000/svg" xmlns:xlink="http://www.w3.org/1999/xlink" x="0px" y="0px"
	 viewBox="0 0 14 16" style="enable-background:new 0 0 14 16;" xml:space="preserve">
<style type="text/css">
	.st0{fill:#4EA6F2;}
</style>
<path class="st0" d="M12.8,10.4l-3-0.4c-0.2,0-0.4,0-0.6,0.2l-1.6,1.4c-1-0.6-3.6-3.8-4-4.9l1.7-1.1C5.4,5.4,5.6,5.2,5.6,5l0.3-3.2
	c0.1-0.7-0.5-1.4-1.2-1.5L1.7,0C1.3,0,0.9,0.1,0.6,0.4C0.4,0.6,0.2,0.9,0.2,1.2L0,2.7c-0.2,2.3,1,5.4,3,8.1c2.2,2.9,5,4.7,7.6,5
	l1.5,0.2c0.1,0,0.1,0,0.2,0c0.7,0,1.3-0.5,1.3-1.2l0.3-2.9C14.1,11.2,13.5,10.5,12.8,10.4L12.8,10.4z"/>
</svg>
