<?xml version="1.0" encoding="utf-8"?>
<!-- Generator: Adobe Illustrator 22.0.1, SVG Export Plug-In . SVG Version: 6.00 Build 0)  -->
<svg version="1.1" id="Layer_1" xmlns="http://www.w3.org/2000/svg" xmlns:xlink="http://www.w3.org/1999/xlink" x="0px" y="0px"
	 viewBox="0 0 70 70" style="enable-background:new 0 0 70 70;" xml:space="preserve">
<style type="text/css">
	.st0{fill:#3DA4FB;}
</style>
<g>
	<path class="st0" d="M25.4,60c-6.6-2.5-13.4-4.4-20.4-5.6c-0.1,0-0.2,0-0.2-0.1C3.8,54,3.3,53,3.6,52c1.8-5.3,3.1-10.7,4.1-16.2
		c0.1-0.5,0.4-1,0.9-1.3c0.5-0.3,1-0.3,1.6-0.2c1.1,0.4,2.3,0.8,3.5,1.1c0.2,0.1,0.5,0.1,0.7,0.1c1.2-0.1,2.2-1,2.5-2.1l0.1-0.2
		c0.2-0.6,0.1-1.3-0.2-1.9c-0.3-0.7-0.3-1.4-0.2-2.1c0.4-1.5,1.7-2.6,3.2-2.6c1.9,0,3.4,1.5,3.4,3.3c0,1-0.5,2-1.3,2.6
		c-0.5,0.4-0.9,0.9-1,1.6l-0.1,0.2c-0.3,1.2,0.2,2.4,1.2,3.1c0.2,0.1,0.4,0.2,0.7,0.3c2.7,0.6,5.4,1,8,1.3c1,0.1,1.9-0.6,2-1.5
		c0.1-1-0.6-1.9-1.5-2c-2-0.3-4-0.6-6.2-1c1.2-1.3,1.8-2.9,1.8-4.6c0-3.2-2.2-5.9-5.2-6.7c-3.7-0.9-7.5,1.3-8.4,5
		c-0.3,1.1-0.3,2.2,0,3.3L11.3,31c-0.3-0.1-0.5-0.2-0.8-0.2c-3-0.5-5.8,1.5-6.3,4.4C3.3,40.6,2,45.8,0.3,50.9
		c-0.5,1.5-0.3,3.2,0.5,4.5C1.6,56.8,3,57.7,4.5,58c6.7,1.1,13.3,2.9,19.6,5.3c0,0,0,0,0.1,0c0.9,0.3,1.9-0.1,2.3-1.1
		C26.8,61.4,26.3,60.3,25.4,60z M7.6,26.4c0.9,0.4,1.9-0.1,2.3-1c2.5-6.6,4.4-13.4,5.6-20.3c0-0.1,0-0.2,0.1-0.2
		c0.3-1,1.4-1.5,2.4-1.2c5.3,1.8,10.7,3.1,16.2,4.1c0.5,0.1,1,0.4,1.3,0.9c0.3,0.5,0.3,1,0.2,1.6c-0.4,1.1-0.8,2.3-1.1,3.5
		c-0.1,0.2-0.1,0.5-0.1,0.7c0.1,1.2,1,2.2,2.1,2.5l0.2,0.1c0.6,0.2,1.3,0.1,1.9-0.2c0.7-0.3,1.4-0.3,2.1-0.2
		c1.5,0.4,2.6,1.7,2.6,3.2c0,1.9-1.5,3.4-3.3,3.4c-1,0-2-0.5-2.6-1.3c-0.4-0.5-1-0.9-1.6-1l-0.2-0.1c-1.2-0.3-2.4,0.2-3.1,1.2
		c-0.1,0.2-0.2,0.4-0.3,0.6c-0.6,2.7-1,5.4-1.4,8c0,0,0,0,0,0c-0.1,1,0.6,1.9,1.5,2h0.2c0.9,0,1.6-0.7,1.8-1.6c0.3-2,0.6-4,1-6.2
		c1.3,1.2,2.9,1.8,4.7,1.8c3.1,0,5.8-2.2,6.6-5.2c0.9-3.7-1.3-7.5-5-8.4c-1.1-0.3-2.2-0.3-3.3,0c0.2-0.6,0.4-1.3,0.6-1.9
		c0.1-0.3,0.2-0.5,0.2-0.8c0.5-3-1.5-5.8-4.4-6.3C29.4,3.3,24.2,2,19.1,0.3c-0.3-0.1-0.5-0.2-0.8-0.2c-3-0.5-5.8,1.5-6.3,4.4
		C10.8,11.2,9,17.8,6.6,24.1C6.3,25,6.7,26,7.6,26.4z M65.5,12c-6.7-1.1-13.3-3-19.7-5.4l0,0.1c-0.9-0.3-1.9,0.1-2.3,1
		c-0.4,0.9,0.1,1.9,1,2.3c6.6,2.5,13.4,4.4,20.4,5.6c0.1,0,0.2,0,0.2,0.1c1,0.3,1.5,1.4,1.2,2.4c-1.8,5.3-3.1,10.7-4.1,16.2
		c-0.1,0.5-0.4,1-0.9,1.3c-0.5,0.3-1,0.3-1.6,0.2c-1.1-0.4-2.3-0.7-3.5-1.1c-0.2-0.1-0.5-0.1-0.7-0.1c-1.2,0.1-2.2,1-2.5,2.1
		l-0.1,0.2c-0.2,0.6-0.1,1.3,0.2,1.9c0.3,0.7,0.3,1.4,0.2,2.1c-0.4,1.5-1.7,2.6-3.2,2.6c-1.9,0-3.4-1.5-3.4-3.3c0-1,0.5-2,1.3-2.6
		c0.5-0.4,0.9-1,1-1.6l0.1-0.2c0.3-1.2-0.2-2.4-1.2-3.1c-0.2-0.1-0.4-0.2-0.7-0.3c-2.7-0.6-5.4-1-8-1.3c-1-0.1-1.9,0.6-2,1.5
		c-0.1,1,0.6,1.9,1.5,2c2,0.3,4,0.6,6.2,1c-1.2,1.3-1.8,2.9-1.8,4.6c0,2.6,1.5,5,3.9,6.2c0.9,0.4,2,0.7,3,0.7c3.2,0,5.9-2.2,6.7-5.2
		c0.3-1.1,0.3-2.2,0-3.3l1.9,0.6c0.3,0.1,0.5,0.2,0.8,0.2c3,0.5,5.8-1.5,6.3-4.4c0.9-5.3,2.2-10.5,3.9-15.6c0.1-0.3,0.2-0.5,0.2-0.8
		C70.4,15.3,68.4,12.5,65.5,12z M62.4,43.5c-0.9-0.3-1.9,0.1-2.3,1.1c-2.5,6.6-4.4,13.4-5.6,20.3c0,0.1,0,0.2-0.1,0.2
		c-0.3,1-1.4,1.5-2.4,1.2c-5.3-1.8-10.7-3.1-16.2-4.1c-0.6-0.1-1-0.4-1.3-0.9c-0.3-0.5-0.3-1-0.2-1.6c0.4-1.1,0.8-2.3,1.1-3.5
		c0.1-0.2,0.1-0.5,0.1-0.7c-0.1-1.2-1-2.2-2.1-2.5L33.2,53c-0.6-0.2-1.3-0.1-1.9,0.2c-0.7,0.3-1.4,0.3-2.1,0.2
		c-1.5-0.4-2.6-1.7-2.6-3.2c0-1.8,1.5-3.4,3.3-3.4c1,0,2,0.4,2.6,1.3c0.4,0.5,1,0.9,1.6,1l0.2,0.1c1.2,0.3,2.4-0.2,3.1-1.2
		c0.1-0.2,0.2-0.4,0.3-0.7c0.6-2.7,1-5.4,1.4-8c0.1-0.9-0.6-1.7-1.4-1.9c-1-0.2-1.9,0.4-2.1,1.4c-0.3,2-0.6,4-1,6.2
		c-1.3-1.2-2.9-1.8-4.7-1.8c-3.3-0.1-6.2,2.2-6.9,5.4c-0.8,3.7,1.5,7.4,5.3,8.2c1.1,0.3,2.2,0.3,3.3,0c-0.2,0.6-0.4,1.3-0.6,1.9
		c-0.1,0.3-0.2,0.5-0.2,0.8c-0.5,3,1.5,5.8,4.4,6.3c5.3,0.9,10.5,2.2,15.6,3.9c0.3,0.1,0.5,0.2,0.8,0.2c3,0.5,5.8-1.5,6.3-4.4
		c1.1-6.7,3-13.3,5.4-19.7c0,0,0,0,0-0.1C63.8,44.8,63.3,43.8,62.4,43.5z"/>
</g>
</svg>
