<?xml version="1.0" encoding="utf-8"?>
<svg xmlns="http://www.w3.org/2000/svg"
	xmlns:xlink="http://www.w3.org/1999/xlink"
	width="31px" height="30px" viewBox="0 0 31 30">
<path fillRule="evenodd" d="M 30.65 1.68C 30.65 1.68 24.6 23.88 24.6 23.88 24.25 25.13 22.96 25.71 21.76 25.22 21.76 25.22 17.79 23.6 17.79 23.6 16.58 23.11 14.6 22.33 13.39 21.86 13.39 21.86 12.97 21.7 12.97 21.7 11.76 21.23 11.49 20.07 12.39 19.12 12.39 19.12 24.68 6 24.68 6 25.56 5.05 25.46 4.93 24.43 5.73 24.43 5.73 8.88 17.97 8.88 17.97 7.86 18.76 6.03 19.03 4.82 18.55 4.82 18.55 1.24 17.13 1.24 17.13 0.03 16.66-0.02 15.77 1.14 15.17 1.14 15.17 29.17 0.5 29.17 0.5 30.33-0.1 30.99 0.43 30.65 1.68ZM 9.77 22.07C 9.77 22.07 12.51 23.19 12.51 23.19 13.72 23.68 14.12 24.97 13.41 26.06 13.41 26.06 10.89 29.91 10.96 29.7 11.03 29.48 8.49 23.35 8.49 23.35 7.99 22.15 8.56 21.58 9.77 22.07Z" fill="rgb(65,75,83)"/></svg>