<?xml version="1.0" encoding="utf-8"?>
<!-- Generator: Adobe Illustrator 22.0.1, SVG Export Plug-In . SVG Version: 6.00 Build 0)  -->
<svg version="1.1" id="Layer_1" xmlns="http://www.w3.org/2000/svg" xmlns:xlink="http://www.w3.org/1999/xlink" x="0px" y="0px"
	 viewBox="0 0 40 37" style="enable-background:new 0 0 40 37;" xml:space="preserve">
<style type="text/css">
	.st0{fill:#2B465E;}
</style>
<g>
	<path class="st0" d="M39.4,3.9L28.9,0.2c0,0,0,0,0,0C28.7,0,28.4,0,28.2,0c-0.2,0-0.5,0-0.6,0.1L13.7,3.8L1.1,0.9
		c-0.3-0.1-0.6,0-0.8,0.2C0.1,1.3,0,1.5,0,1.8v31.4c0,0.4,0.3,0.8,0.7,0.9l12.5,2.8c0.1,0.1,0.3,0.1,0.4,0.1c0,0,0,0,0.1,0
		c0,0,0,0,0.1,0c0.2,0,0.3,0,0.5-0.1l13.9-3.6l10.6,3.7c0.1,0,0.2,0.1,0.3,0.1c0.2,0,0.4-0.1,0.5-0.2c0.2-0.2,0.4-0.4,0.4-0.7V4.7
		C40,4.3,39.8,4,39.4,3.9z M14.7,24.3c0.1,0,0.1,0,0.2-0.1c0.4-0.3,0.8-0.7,1.2-1.2c0.1-0.2,0.1-0.4,0-0.6c-0.2-0.1-0.4-0.1-0.6,0
		c-0.3,0.3-0.5,0.5-0.7,0.8v-4.7c0.8-0.7,1.5-1.6,2.3-2.6c2.3-2.8,5.1-6.2,10.2-7.5v2.3c-0.4,0.1-0.8,0.2-1.2,0.3
		c-0.2,0.1-0.3,0.3-0.2,0.5c0.1,0.2,0.2,0.3,0.4,0.3c0,0,0.1,0,0.1,0c0.3-0.1,0.6-0.2,0.9-0.2v3.1c-2.5,0.7-4.7,3.6-7,6.6
		c-1.8,2.4-3.6,4.8-5.5,5.9V24.3L14.7,24.3z M29.2,8.5c5.5,1.2,8,5.1,8.9,7v5.5C38,21.2,38,21.3,38,21.5c0,0.2,0.1,0.3,0.1,0.5v5
		c-1.9-5.9-5.2-11.4-8.9-12.3V8.5z M38.2,5.4v7.8c-1.8-2.6-4.7-5-8.9-5.8v-5L38.2,5.4z M27.2,2.1v5.1c-5.6,1.3-8.8,5.1-11.1,7.9
		c-0.5,0.6-1,1.2-1.4,1.6V5.4L27.2,2.1z M12.7,18.5c-0.5,0-1-0.3-1.5-0.7c-2.6-2.6-3-10.6-3-13.4l4.5,1V18.5z M7,4.1
		c0,2.5,0.3,11.4,3.4,14.5c0.7,0.7,1.5,1,2.3,1.1v7.9C4,25.1,2.1,15.6,1.8,10V3L7,4.1z M1.8,32.5v-15c2.4,7.9,7.7,10.4,10.9,11.3
		v6.2L1.8,32.5z M14.7,34.9v-6.4c2.3-1.1,4.4-3.9,6.5-6.6c2-2.6,4-5.3,6-6.1v15.7L14.7,34.9z M29.2,31.7V15.8
		c4.1,1.3,7.8,9.5,8.9,16.2v2.8L29.2,31.7z"/>
	<path class="st0" d="M22.6,14.2c0.1,0,0.2,0,0.3-0.1c0.4-0.4,0.8-0.7,1.1-1c0.2-0.1,0.2-0.4,0.1-0.6c-0.1-0.2-0.4-0.2-0.6-0.1
		c-0.4,0.3-0.8,0.7-1.2,1.1c-0.2,0.2-0.2,0.4,0,0.6C22.4,14.2,22.5,14.2,22.6,14.2z"/>
	<path class="st0" d="M34.6,15.6c0.1,0.1,0.2,0.1,0.3,0.1c0.1,0,0.2,0,0.3-0.1c0.2-0.1,0.2-0.4,0-0.6c-0.4-0.4-0.7-0.8-1.1-1.1
		c-0.2-0.1-0.4-0.1-0.6,0c-0.1,0.2-0.1,0.4,0,0.6C33.9,14.9,34.3,15.2,34.6,15.6z"/>
	<path class="st0" d="M37,19c0.1,0.1,0.2,0.2,0.4,0.2c0.1,0,0.1,0,0.2,0c0.2-0.1,0.3-0.3,0.2-0.5c-0.2-0.5-0.5-0.9-0.8-1.4
		c-0.1-0.2-0.4-0.2-0.6-0.1c-0.2,0.1-0.2,0.4-0.1,0.5C36.5,18.1,36.8,18.6,37,19z"/>
	<path class="st0" d="M17.3,21c0.1,0,0.3-0.1,0.3-0.2c0.2-0.3,0.4-0.6,0.6-0.8l0.3-0.5c0.1-0.2,0.1-0.4-0.1-0.5
		c-0.2-0.1-0.4-0.1-0.6,0.1l-0.3,0.5c-0.2,0.3-0.4,0.6-0.6,0.8c-0.1,0.2-0.1,0.4,0.1,0.5C17.2,21,17.3,21,17.3,21z"/>
	<path class="st0" d="M19.8,17.5c0.1,0,0.2-0.1,0.3-0.2c0.3-0.4,0.6-0.8,1-1.2c0.1-0.2,0.1-0.4-0.1-0.6c-0.2-0.1-0.4-0.1-0.6,0.1
		c-0.3,0.4-0.6,0.8-1,1.2c-0.1,0.2-0.1,0.4,0.1,0.6C19.6,17.5,19.7,17.5,19.8,17.5z"/>
	<path class="st0" d="M4.8,12.2c0.1,0.5,0.2,1,0.3,1.5c0,0.2,0.2,0.3,0.4,0.3c0,0,0.1,0,0.1,0c0.2,0,0.4-0.3,0.3-0.5
		c-0.1-0.5-0.2-1-0.3-1.5c0-0.2-0.2-0.4-0.5-0.3C4.9,11.8,4.7,12,4.8,12.2z"/>
	<path class="st0" d="M4.6,7.6C4.4,7.6,4.2,7.8,4.3,8c0,0.5,0.1,1,0.1,1.6c0,0.2,0.2,0.4,0.4,0.4c0,0,0,0,0,0c0.2,0,0.4-0.2,0.4-0.4
		C5.1,9,5.1,8.4,5.1,7.9C5,7.7,4.9,7.6,4.6,7.6z"/>
	<path class="st0" d="M31.9,12.3c-0.5-0.3-0.9-0.5-1.4-0.8c-0.2-0.1-0.4,0-0.5,0.2c-0.1,0.2,0,0.4,0.2,0.5c0.5,0.2,0.9,0.5,1.3,0.7
		c0.1,0,0.1,0.1,0.2,0.1c0.1,0,0.3-0.1,0.3-0.2C32.1,12.6,32,12.4,31.9,12.3z"/>
	<path class="st0" d="M5.8,16.4c0.2,0.5,0.3,1,0.5,1.5c0.1,0.2,0.2,0.2,0.4,0.2c0,0,0.1,0,0.1,0c0.2-0.1,0.3-0.3,0.2-0.5
		c-0.2-0.5-0.4-0.9-0.5-1.4C6.5,16,6.2,15.9,6,15.9C5.8,16,5.7,16.2,5.8,16.4z"/>
	<path class="st0" d="M8.5,21.7c0.1,0.1,0.2,0.2,0.3,0.2c0.1,0,0.2,0,0.2-0.1c0.2-0.1,0.2-0.4,0.1-0.6c-0.3-0.4-0.6-0.8-0.9-1.2
		c-0.1-0.2-0.4-0.2-0.5-0.1c-0.2,0.1-0.3,0.4-0.1,0.5C7.8,20.9,8.1,21.3,8.5,21.7z"/>
	<path class="st0" d="M11.9,24.5c0.1,0,0.1,0,0.2,0c0.2,0,0.3-0.1,0.4-0.2c0.1-0.2,0-0.4-0.2-0.5c-0.4-0.2-0.9-0.4-1.3-0.7
		c-0.2-0.1-0.4-0.1-0.6,0.1c-0.1,0.2-0.1,0.4,0.1,0.6C10.9,24.1,11.4,24.3,11.9,24.5z"/>
	<path class="st0" d="M4.6,5.6C4.6,5.6,4.6,5.6,4.6,5.6C4.8,5.6,5,5.4,5,5.2c0-0.3,0-0.5,0-0.8C4.9,4.2,4.8,4,4.5,4
		C4.3,4,4.1,4.2,4.1,4.4c0,0.3,0,0.5,0,0.8C4.2,5.4,4.3,5.6,4.6,5.6z"/>
</g>
</svg>
