<?xml version="1.0" encoding="utf-8"?>
<!-- Generator: Adobe Illustrator 22.0.1, SVG Export Plug-In . SVG Version: 6.00 Build 0)  -->
<svg version="1.1" id="Layer_1" xmlns="http://www.w3.org/2000/svg" xmlns:xlink="http://www.w3.org/1999/xlink" x="0px" y="0px"
	 viewBox="0 0 26 26" style="enable-background:new 0 0 26 26;" xml:space="preserve">
<style type="text/css">
	.st0{fill-rule:evenodd;clip-rule:evenodd;fill:url(#SVGID_1_);}
</style>
<linearGradient id="SVGID_1_" gradientUnits="userSpaceOnUse" x1="3.0412" y1="4.6436" x2="22.9588" y2="21.3564">
	<stop  offset="0" style="stop-color:#3899EC"/>
	<stop  offset="1" style="stop-color:#4EA6F2"/>
</linearGradient>
<path class="st0" d="M13,0C5.8,0,0,5.8,0,13s5.8,13,13,13s13-5.8,13-13S20.2,0,13,0z M12.8,17.7c-0.4,0.5-1.1,0.5-1.5,0
	c-0.4-0.5-0.4-1.2,0-1.6l2.7-3l-2.7-3c-0.4-0.5-0.4-1.2,0-1.6c0.4-0.5,1.1-0.5,1.5,0L17,13L12.8,17.7z"/>
</svg>
