<?xml version="1.0" encoding="utf-8"?>
<!-- Generator: Adobe Illustrator 22.0.1, SVG Export Plug-In . SVG Version: 6.00 Build 0)  -->
<svg version="1.1" id="Layer_1" xmlns="http://www.w3.org/2000/svg" xmlns:xlink="http://www.w3.org/1999/xlink" x="0px" y="0px"
	 viewBox="0 0 28 28" style="enable-background:new 0 0 28 28;" xml:space="preserve">
<style type="text/css">
	.st0{fill:url(#SVGID_1_);}
	.st1{fill:#3899EC;}
	.st2{fill:#FFFFFF;}
</style>
<g>
	
		<linearGradient id="SVGID_1_" gradientUnits="userSpaceOnUse" x1="3.6582" y1="23.9534" x2="24.3418" y2="6.5978" gradientTransform="matrix(1 0 0 -1 0 29.2756)">
		<stop  offset="0" style="stop-color:#2693EF"/>
		<stop  offset="1" style="stop-color:#58B2FF"/>
	</linearGradient>
	<circle class="st0" cx="14" cy="14" r="13.5"/>
	<path class="st1" d="M14,1c7.2,0,13,5.8,13,13s-5.8,13-13,13S1,21.2,1,14S6.8,1,14,1 M14,0C6.3,0,0,6.3,0,14s6.3,14,14,14
		s14-6.3,14-14S21.7,0,14,0L14,0z"/>
	<path class="st2" d="M19,14l-5-4v3h-4v2h4v3L19,14z"/>
</g>
</svg>
