<?xml version="1.0" encoding="utf-8"?>
<!-- Generator: Adobe Illustrator 22.0.1, SVG Export Plug-In . SVG Version: 6.00 Build 0)  -->
<svg version="1.1" id="Layer_1" xmlns="http://www.w3.org/2000/svg" xmlns:xlink="http://www.w3.org/1999/xlink" x="0px" y="0px"
	 viewBox="0 0 34 36" style="enable-background:new 0 0 34 36;" xml:space="preserve">
<style type="text/css">
	.st0{fill:#53A8F0;}
</style>
<path class="st0" d="M1.8,36c-0.7,0-1.2-0.2-1.5-0.6C0,35-0.1,34.5,0.2,33.9c1.7-3.8,6.1-7.4,11.5-9.6c0.4-1.1,0.8-2.3,1.2-3.6
	c0.4-1.6,0.7-3.1,1-4.4c-3.1-4.6-3.3-8.4-2.8-11.1c0.6-2.8,2.1-4.8,3-5.1c0.7-0.3,1.4-0.2,2,0.3C17.1,1.3,18.1,4,15.5,16
	c0.9,1.2,2.1,2.6,3.5,3.9c0.8,0.7,1.5,1.4,2.3,2c4.5-0.3,8.7,0.6,11.9,2.6v0c0.6,0.4,0.9,1,0.8,1.6c-0.1,0.8-0.7,1.5-1.7,1.8
	c-1.4,0.5-5,0.9-11.5-4.4c-1.6,0.2-3.3,0.5-4.9,1c-1,0.3-2,0.6-3,1c-3,7.1-7.6,9.8-10.1,10.4C2.4,36,2.1,36,1.8,36z M1.7,34.4
	c0.3,0,0.9-0.1,1.8-0.4c1.2-0.5,4.5-2.3,7.1-7.5C6.5,28.6,3.1,31.5,1.7,34.4z M23.2,23.4c4.7,3.4,7.7,3.5,8.8,2.9
	c0.3-0.2,0.4-0.4,0.4-0.4c0,0,0,0-0.1-0.1l0,0C29.8,24.3,26.7,23.4,23.2,23.4z M15.1,18c-0.2,1-0.5,2-0.7,3.1
	c-0.2,0.9-0.5,1.7-0.7,2.4c0.6-0.2,1.2-0.4,1.7-0.6c1.3-0.4,2.5-0.6,3.8-0.8c-0.4-0.3-0.8-0.7-1.2-1.1C16.8,20,15.9,19,15.1,18z
	 M14.8,1.6c0,0-0.1,0-0.2,0.1c-0.3,0.2-1.8,1.8-2.1,4.6c-0.3,2,0,4.7,1.8,7.9c2.1-10.5,1-12.2,0.7-12.5C14.9,1.6,14.9,1.6,14.8,1.6z
	"/>
</svg>
